<?xml version="1.0" encoding="UTF-8" standalone="no"?>
<!DOCTYPE svg PUBLIC "-//W3C//DTD SVG 1.1//EN"
 "http://www.w3.org/Graphics/SVG/1.1/DTD/svg11.dtd">
<!-- Generated by graphviz version 2.40.1 (0)
 -->
<!-- Title: G Pages: 1 -->
<svg width="308pt" height="232pt"
 viewBox="0.00 0.00 307.55 231.80" xmlns="http://www.w3.org/2000/svg" xmlns:xlink="http://www.w3.org/1999/xlink">
<g id="graph0" class="graph" transform="scale(1 1) rotate(0) translate(4 227.8)">
<title>G</title>
<polygon fill="#ffffff" stroke="transparent" points="-4,4 -4,-227.8 303.5534,-227.8 303.5534,4 -4,4"/>
<!-- 140227505420160 -->
<g id="node1" class="node">
<title>140227505420160</title>
<polygon fill="none" stroke="#000000" points="0,-173.7 0,-223.3 299.5534,-223.3 299.5534,-173.7 0,-173.7"/>
<text text-anchor="middle" x="83.6196" y="-194.3" font-family="Times,serif" font-size="14.00" fill="#000000">dense_1_input: InputLayer</text>
<polyline fill="none" stroke="#000000" points="167.2392,-173.7 167.2392,-223.3 "/>
<text text-anchor="middle" x="195.0751" y="-206.7" font-family="Times,serif" font-size="14.00" fill="#000000">input:</text>
<polyline fill="none" stroke="#000000" points="167.2392,-198.5 222.911,-198.5 "/>
<text text-anchor="middle" x="195.0751" y="-181.9" font-family="Times,serif" font-size="14.00" fill="#000000">output:</text>
<polyline fill="none" stroke="#000000" points="222.911,-173.7 222.911,-223.3 "/>
<text text-anchor="middle" x="261.2322" y="-206.7" font-family="Times,serif" font-size="14.00" fill="#000000">(None, 11)</text>
<polyline fill="none" stroke="#000000" points="222.911,-198.5 299.5534,-198.5 "/>
<text text-anchor="middle" x="261.2322" y="-181.9" font-family="Times,serif" font-size="14.00" fill="#000000">(None, 11)</text>
</g>
<!-- 140227505419488 -->
<g id="node2" class="node">
<title>140227505419488</title>
<polygon fill="none" stroke="#000000" points="31.4972,-87.1 31.4972,-136.7 268.0562,-136.7 268.0562,-87.1 31.4972,-87.1"/>
<text text-anchor="middle" x="83.6196" y="-107.7" font-family="Times,serif" font-size="14.00" fill="#000000">dense_1: Dense</text>
<polyline fill="none" stroke="#000000" points="135.742,-87.1 135.742,-136.7 "/>
<text text-anchor="middle" x="163.5779" y="-120.1" font-family="Times,serif" font-size="14.00" fill="#000000">input:</text>
<polyline fill="none" stroke="#000000" points="135.742,-111.9 191.4138,-111.9 "/>
<text text-anchor="middle" x="163.5779" y="-95.3" font-family="Times,serif" font-size="14.00" fill="#000000">output:</text>
<polyline fill="none" stroke="#000000" points="191.4138,-87.1 191.4138,-136.7 "/>
<text text-anchor="middle" x="229.735" y="-120.1" font-family="Times,serif" font-size="14.00" fill="#000000">(None, 11)</text>
<polyline fill="none" stroke="#000000" points="191.4138,-111.9 268.0562,-111.9 "/>
<text text-anchor="middle" x="229.735" y="-95.3" font-family="Times,serif" font-size="14.00" fill="#000000">(None, 11)</text>
</g>
<!-- 140227505420160&#45;&gt;140227505419488 -->
<g id="edge1" class="edge">
<title>140227505420160&#45;&gt;140227505419488</title>
<path fill="none" stroke="#000000" d="M149.7767,-173.4517C149.7767,-165.1937 149.7767,-155.8517 149.7767,-146.9864"/>
<polygon fill="#000000" stroke="#000000" points="153.2768,-146.892 149.7767,-136.892 146.2768,-146.892 153.2768,-146.892"/>
</g>
<!-- 140227505419880 -->
<g id="node3" class="node">
<title>140227505419880</title>
<polygon fill="none" stroke="#000000" points="31.4972,-.5 31.4972,-50.1 268.0562,-50.1 268.0562,-.5 31.4972,-.5"/>
<text text-anchor="middle" x="83.6196" y="-21.1" font-family="Times,serif" font-size="14.00" fill="#000000">dense_2: Dense</text>
<polyline fill="none" stroke="#000000" points="135.742,-.5 135.742,-50.1 "/>
<text text-anchor="middle" x="163.5779" y="-33.5" font-family="Times,serif" font-size="14.00" fill="#000000">input:</text>
<polyline fill="none" stroke="#000000" points="135.742,-25.3 191.4138,-25.3 "/>
<text text-anchor="middle" x="163.5779" y="-8.7" font-family="Times,serif" font-size="14.00" fill="#000000">output:</text>
<polyline fill="none" stroke="#000000" points="191.4138,-.5 191.4138,-50.1 "/>
<text text-anchor="middle" x="229.735" y="-33.5" font-family="Times,serif" font-size="14.00" fill="#000000">(None, 11)</text>
<polyline fill="none" stroke="#000000" points="191.4138,-25.3 268.0562,-25.3 "/>
<text text-anchor="middle" x="229.235" y="-8.7" font-family="Times,serif" font-size="14.00" fill="#000000">(None, 1)</text>
</g>
<!-- 140227505419488&#45;&gt;140227505419880 -->
<g id="edge2" class="edge">
<title>140227505419488&#45;&gt;140227505419880</title>
<path fill="none" stroke="#000000" d="M149.7767,-86.8517C149.7767,-78.5937 149.7767,-69.2517 149.7767,-60.3864"/>
<polygon fill="#000000" stroke="#000000" points="153.2768,-60.292 149.7767,-50.292 146.2768,-60.292 153.2768,-60.292"/>
</g>
</g>
</svg>
